<?xml version="1.0" standalone="no"?>
<!DOCTYPE svg PUBLIC "-//W3C//DTD SVG 1.1//EN" "http://www.w3.org/Graphics/SVG/1.1/DTD/svg11.dtd" >
<!--
2013-9-30: Created.
-->
<svg>
<metadata>
Created by iconfont
</metadata>
<defs>

<font id="iconfont" horiz-adv-x="1024" >
  <font-face
    font-family="iconfont"
    font-weight="500"
    font-stretch="normal"
    units-per-em="1024"
    ascent="896"
    descent="-128"
  />
    <missing-glyph />
    
    <glyph glyph-name="jia" unicode="&#58951;" d="M906.212134 330.267014 565.732986 330.267014 565.732986-10.212134C565.732986-30.013685 541.666486-63.972 511.97312-63.972 482.297674-63.972 458.213254-30.013685 458.213254-10.212134L458.213254 330.267014 117.734106 330.267014C97.950475 330.267014 63.97424 354.333514 63.97424 384.02688 63.97424 413.720246 97.950475 437.786746 117.734106 437.786746L458.213254 437.786746 458.213254 778.265894C458.213254 798.049525 482.297674 832.02576 511.97312 832.02576 541.666486 832.02576 565.732986 798.049525 565.732986 778.265894L565.732986 437.786746 906.212134 437.786746C925.995765 437.786746 959.972 413.720246 959.972 384.02688 959.972 354.333514 925.995765 330.267014 906.212134 330.267014Z"  horiz-adv-x="1024" />

    
    <glyph glyph-name="xiangzuo" unicode="&#58946;" d="M796.476945-54.89849c16.760011-16.703711 16.760011-43.832142 0-60.537899-16.676072-16.751821-43.809621-16.751821-60.490812 0L226.537293 351.36261c-8.900525 8.950683-12.714597 20.789046-12.134194 32.452368-0.580402 11.670487 3.232646 23.532394 12.134194 32.458509l509.449864 466.799c16.681191 16.751821 43.81474 16.751821 60.490812 0 16.760011-16.721112 16.760011-43.832142 0-60.537899L317.818085 383.816001 796.476945-54.89849 796.476945-54.89849zM796.476945-54.89849"  horiz-adv-x="1024" />

    
    <glyph glyph-name="you" unicode="&#58885;" d="M233.046-45.461c-18.88-17.846-18.88-46.715 0.105-64.48 18.985-17.84 49.622-17.84 68.607 0l489.848 460.275c9.568 8.87 14.149 20.597 14.149 32.273 0 0.99-0.523 1.82-0.575 2.758-0.21 4.887-0.99 9.782-2.966 14.356-0.674 1.513-1.976 2.604-2.807 4.005-2.186 3.849-4.371 7.806-7.801 11.134L301.759 875.21c-18.985 17.631-49.517 17.631-68.607-0.053-18.985-17.788-18.985-46.71 0-64.5L688.608 382.61l-455.562-428.07z m0 0"  horiz-adv-x="1024" />

    
    <glyph glyph-name="duihuakuang" unicode="&#58949;" d="M1019.582396 316.150253a513.467843 513.467843 0 0 0-81.008001-215.632601l36.578753-189.976276a30.918433 30.918433 0 0 0-37.830281-37.176073h-0.028443l-0.341326 0.085332c-2.645275 0.711096-59.988017 16.070758-196.745905 52.137522a508.3764 508.3764 0 0 0-295.787287-49.008702 508.404843 508.404843 0 0 0-192.16645 66.302545 509.485709 509.485709 0 0 0-146.713225 130.272697A510.566574 510.566574 0 0 0 4.877552 451.798832 510.794124 510.794124 0 0 0 201.42435 790.735394 509.741703 509.741703 0 0 0 377.235603 877.88726a508.689282 508.689282 0 0 0 202.804438 13.510814 510.794124 510.794124 0 0 0 338.908118-196.575242 510.993231 510.993231 0 0 0 87.151866-175.811253c18.09027-66.131882 22.641281-134.368607 13.482371-202.861326zM571.848221 830.073198C325.894507 862.954254 99.05504 689.58917 66.173984 443.607012c-32.881056-245.982158 140.484028-472.850068 386.437742-505.731124a446.852416 446.852416 0 0 1 269.562085 47.984725c6.854961 3.612365 14.81923 4.522567 22.328399 2.559943 74.949466-19.768455 127.342983-33.649039 160.878247-42.551955l-29.951343 155.616141c-1.592854 8.248708 0.227551 16.781854 5.063 23.665258a445.088899 445.088899 0 0 1 77.793849 199.192074c32.881056 245.982158-140.484028 472.850068-386.437742 505.731124z m170.094045-510.196804a57.428073 57.428073 0 1 0 0.056888 114.856146 57.428073 57.428073 0 0 0-0.056888-114.856146z m-225.474163 0a57.399629 57.399629 0 1 0 0 114.799258 57.399629 57.399629 0 0 0 0-114.799258z m-225.474163 0a57.456517 57.456517 0 1 0 0 114.856146 57.456517 57.456517 0 0 0 0-114.856146z"  horiz-adv-x="1024" />

    
    <glyph glyph-name="shizhong" unicode="&#58960;" d="M512 597.0879520799999C394.31647079 597.0879520799999 298.91204792 501.68352921 298.91204792 384s95.40442283-213.08795208 213.08795208-213.08795208 213.08795208 95.40442283 213.08795208 213.08795208S629.68352921 597.0879520799999 512 597.0879520799999z m0-388.124484c-96.66963264 0-175.03653192 78.36689951-175.03653192 175.03653192s78.36689951 175.03653192 175.03653192 175.03653192 175.03653192-78.36689951 175.03653192-175.03653192-78.36689951-175.03653192-175.03653192-175.03653192zM595.71312394 403.02570978H531.02570978V498.15426005a19.02570978 19.02570978 0 0 1-38.05141956 0v-114.15426005a19.02570978 19.02570978 0 0 1 19.02570978-19.02570978h83.71312421a19.02570978 19.02570978 0 0 1 19.02570983 19.02570978 19.02570978 19.02570978 0 0 1-19.02570983 19.02570978z"  horiz-adv-x="1024" />

    
    <glyph glyph-name="duigou" unicode="&#58880;" d="M512 896C228.266667 896 0 667.733333 0 384c0-283.733333 228.266667-512 512-512 283.733333 0 512 228.266667 512 512C1024 667.733333 795.733333 896 512 896zM832 512L492.8 172.79999999999995C469.333333 149.33333300000004 426.666667 149.33333300000004 403.2 172.79999999999995L192 384c0 0-32 32 0 64s64 0 64 0l192-192 320 320c0 0 32 32 64 0S832 512 832 512z"  horiz-adv-x="1024" />

    
    <glyph glyph-name="nav_icon_buy" unicode="&#58883;" d="M246.848 716.736c-79.808 0-99.008 17.216-99.84 39.936 0.832 16 45.184 28.864 72.768 28.864h520.192c19.2 0 37.632-5.248 53.568-14.912-19.008 36.032-55.936 60.8-97.28 60.8H176c-60.736 0-111.424-53.248-111.424-116.992v-546.112c0-3.2 0-6.4 0.192-9.408-0.192-15.36-0.192-29.376-0.192-41.6 39.552-142.72 150.592-169.984 187.328-175.232 10.688-3.712 21.824-5.504 33.408-5.504h520.256c60.736 0 111.424 53.184 111.424 116.992v112.448H539.968c-102.528 1.344-128.32 71.808-128.32 160.64 0 88.768 28.672 160.64 131.2 160.64h374.144V599.6800000000001c0 63.808-50.688 117.056-111.424 117.056h-558.72z m287.68-275.392c-39.616 0-76.544-51.392-76.544-114.688 0-63.36 36.928-114.752 76.544-114.752h393.408c18.368 0 32.128 18.56 31.488 34.432V405.568c0.64 15.616-13.12 35.84-31.488 35.84H534.528zM520.96 326.65599999999995c0 38.08 31.936 71.552 68.16 71.552 36.352 0 68.224-33.472 68.224-71.552 0-38.144-30.592-70.208-66.88-70.208-36.032 0-69.504 32.064-69.504 70.208z"  horiz-adv-x="1024" />

    
    <glyph glyph-name="nav_icon_sell" unicode="&#58882;" d="M911.296 416.64V843.648H117.376V416.64H51.2v-433.536c0-32.832 26.496-59.072 52.928-59.072h813.76c33.088 0 52.992 26.24 52.992 52.48V416.64h-59.584zM183.552 725.376h661.568V416.64H183.552V725.376z m52.928-65.664h549.12v-59.136h-549.12v59.136z m0-124.8h549.12v-59.2h-549.12v59.2z"  horiz-adv-x="1024" />

    
    <glyph glyph-name="nav_icon_company" unicode="&#58884;" d="M992-6.399999999999977h-64v448c0 38.4-25.6 76.8-57.6 83.2l-256 83.2c-6.4 6.4-19.2 0-25.6-6.4-6.4-6.4-12.8-19.2-12.8-25.6v-582.4h-32V768c0 25.6-6.4 44.8-25.6 64C492.8 844.8 460.8 851.2 435.2 844.8L160 761.6c-38.4-12.8-64-51.2-64-89.6v-684.8h-64c-19.2 0-32-12.8-32-32s12.8-32 32-32h960c19.2 0 32 12.8 32 32s-12.8 38.4-32 38.4z m-275.2 288h64c19.2 0 32-19.2 32-51.2s-12.8-51.2-32-51.2h-64c-19.2 0-32 19.2-32 51.2 6.4 32 12.8 51.2 32 51.2zM256 544h128c19.2 0 32-19.2 32-51.2s-12.8-51.2-32-51.2H256c-19.2 0-32 19.2-32 51.2s12.8 51.2 32 51.2z m0-262.4h128c19.2 0 32-19.2 32-51.2s-12.8-51.2-32-51.2H256c-19.2 0-32 19.2-32 51.2s12.8 51.2 32 51.2z"  horiz-adv-x="1024" />

    
    <glyph glyph-name="nav_icon_dashboard" unicode="&#58881;" d="M467.2 640v-204.8H256C147.2 428.8 51.2 524.8 51.2 640S147.2 844.8 256 844.8 467.2 748.8 467.2 640z m505.6-512c0-115.2-89.6-204.8-204.8-204.8S556.8 12.799999999999955 556.8 128V339.20000000000005H768c115.2 0 204.8-96 204.8-211.2z m0 512c0-115.2-89.6-204.8-204.8-204.8H556.8V640c0 115.2 89.6 204.8 204.8 204.8s211.2-89.6 211.2-204.8zM467.2 339.20000000000005V128c0-115.2-89.6-204.8-204.8-204.8S51.2 12.799999999999955 51.2 128 140.8 339.20000000000005 256 339.20000000000005h211.2z"  horiz-adv-x="1024" />

    
    <glyph glyph-name="nav_notification" unicode="&#58893;" d="M549.994667 243.69066699999996c1.322667-3.904 2.026667-8.064 2.026666-12.373334 0-21.717333-17.92-39.317333-40.021333-39.317333s-40.021333 17.6-40.021333 39.296c0 4.330667 0.704 8.490667 2.026666 12.394667H341.333333v19.157333c8.832 8.106667 18.346667 18.645333 25.941334 31.722667 28.672 49.621333 11.946667 77.098667 23.210666 168.874666 10.069333 82.282667 72.917333 105.813333 105.173334 112.554667h32.746666c32.192-6.72 95.04-30.293333 105.130667-112.554667 11.264-91.818667-5.461333-119.253333 23.210667-168.874666A136.618667 136.618667 0 0 1 682.666667 262.84799999999996v-19.157333h-132.672z"  horiz-adv-x="1024" />

    
    <glyph glyph-name="nav_cart" unicode="&#58890;" d="M441.813333 251.264c5.482667 0 10.666667-1.002667 15.573334-3.029333 4.906667-2.005333 9.173333-4.8 12.757333-8.405334 3.626667-3.584 6.485333-7.829333 8.661333-12.714666 2.154667-4.885333 3.242667-10.026667 3.242667-15.509334 0-5.461333-1.066667-10.624-3.242667-15.509333a41.429333 41.429333 0 0 0-8.661333-12.714667 41.6 41.6 0 0 0-12.757333-8.618666c-4.906667-2.154667-10.090667-3.242667-15.573334-3.242667-5.76 0-11.093333 1.066667-16 3.242667a41.6 41.6 0 0 0-12.757333 8.618666 41.429333 41.429333 0 0 0-8.64 12.714667 37.909333 37.909333 0 0 0-3.242667 15.509333c0 5.461333 1.066667 10.624 3.242667 15.509334 2.154667 4.906667 5.034667 9.130667 8.64 12.714666 3.626667 3.605333 7.850667 6.4 12.757333 8.405334 4.906667 2.026667 10.24 3.029333 16 3.029333z m179.925334-0.853333c5.482667 0 10.730667-1.024 15.786666-3.029334 5.034667-2.005333 9.386667-4.821333 12.970667-8.405333 3.605333-3.584 6.485333-7.829333 8.661333-12.714667 2.133333-4.885333 3.242667-10.048 3.242667-15.509333s-1.088-10.645333-3.242667-15.509333a41.429333 41.429333 0 0 0-8.661333-12.714667 40.917333 40.917333 0 0 0-12.970667-8.618667 39.786667 39.786667 0 0 0-44.117333 8.618667 41.429333 41.429333 0 0 0-8.64 12.714667 37.909333 37.909333 0 0 0-3.242667 15.509333c0 5.461333 1.066667 10.624 3.242667 15.509333 2.133333 4.885333 5.034667 9.130667 8.64 12.714667 3.605333 3.584 7.850667 6.4 12.757333 8.405333 4.906667 2.005333 10.090667 3.008 15.573334 3.008z m72.661333 244.778666c8.064 0 14.336-1.066667 18.816-3.242666 4.48-2.133333 7.637333-4.8 9.514667-7.957334a18.048 18.048 0 0 0 2.581333-10.133333c-0.128-3.584-0.64-6.677333-1.493333-9.258667-0.874667-2.602667-2.773333-7.893333-5.632-15.957333-2.88-8.042667-5.973333-16.874667-9.301334-26.496-3.328-9.621333-6.613333-19.2-9.941333-28.672-3.328-9.472-5.973333-16.938667-8-22.4-3.754667-11.498667-8.448-19.477333-14.08-23.914667-5.610667-4.48-12.586667-6.677333-20.970667-6.677333H428.842667l6.058666-38.805333h218.410667c13.845333 0 20.757333-5.888 20.757333-17.664 0-5.76-1.365333-10.709333-4.117333-14.869334-2.730667-4.16-8.128-6.250667-16.213333-6.250666H427.114667c-5.76 0-10.602667 1.28-14.506667 3.882666a32.768 32.768 0 0 0-9.706667 10.133334 61.44 61.44 0 0 0-6.272 13.568 123.733333 123.733333 0 0 0-3.669333 13.802666c-0.298667 1.706667-1.088 5.888-2.389333 12.48-1.28 6.613333-2.88 14.869333-4.757334 24.789334a206193.856 206193.856 0 0 0-13.184 70.037333c-5.482667 29.013333-11.690667 61.333333-18.602666 96.96h-32.426667a17.557333 17.557333 0 0 0-10.816 3.242667 28.16 28.16 0 0 0-7.146667 7.744 29.802667 29.802667 0 0 0-3.882666 9.706666 46.613333 46.613333 0 0 0-1.088 9.472c0 5.76 1.941333 10.496 5.845333 14.229334 3.882667 3.733333 9.152 5.610667 15.786667 5.610666h43.690666c5.76 0 10.368-0.853333 13.824-2.602666a23.466667 23.466667 0 0 0 12.544-14.634667l2.154667-7.338667c0.576-2.304 1.152-5.546667 1.728-9.685333l1.728-12.714667c0.874667-5.184 1.749333-10.645333 2.602667-16.384H694.4z m-32.426667 13.781334h-158.293333l57.066667 56.896c6.634667 6.613333 13.930667 9.984 21.845333 10.133333 7.936 0.149333 15.210667-3.093333 21.845333-9.706667l57.514667-57.322666z"  horiz-adv-x="1024" />

    
    <glyph glyph-name="nav_tool" unicode="&#58891;" d="M469.12 365.098667h-126.506667c-11.733333 0-21.248-9.749333-21.248-21.76v-129.6c0-11.989333 9.536-21.738667 21.226667-21.738667h126.528c11.690667 0 21.205333 9.749333 21.205333 21.738667v129.621333c0 11.989333-9.514667 21.738667-21.205333 21.738667z m-127.893333 22.72h126.506666c11.712 0 21.226667 9.749333 21.226667 21.717333v129.621333c0 11.989333-9.514667 21.738667-21.226667 21.738667h-126.506666c-11.712 0-21.226667-9.749333-21.226667-21.738667v-129.621333c0-11.968 9.514667-21.717333 21.226667-21.717333z m332.074666-21.333334h-126.506666c-11.712 0-21.226667-9.728-21.226667-21.717333v-129.621333c0-11.989333 9.514667-21.738667 21.205333-21.738667h126.528c11.712 0 21.226667 9.749333 21.226667 21.738667V344.746667c0 11.989333-9.514667 21.738667-21.226667 21.738666z m24.832 127.573334l-74.112 75.946666a19.712 19.712 0 0 1-28.373333-0.021333l-74.090667-75.904a20.672 20.672 0 0 1-5.909333-14.549333c0-5.504 2.090667-10.666667 5.888-14.549334l74.112-75.925333a19.690667 19.690667 0 0 1 28.373333 0l74.133334 75.946667a20.970667 20.970667 0 0 1 0 29.056z m-88.32-86.08l-69.802666 71.552 69.824 71.530666 69.824-71.530666-69.824-71.552z"  horiz-adv-x="1024" />

    
    <glyph glyph-name="nav_help" unicode="&#58892;" d="M512 597.333333c-117.824 0-213.333333-95.509333-213.333333-213.333333s95.509333-213.333333 213.333333-213.333333 213.333333 95.509333 213.333333 213.333333-95.509333 213.333333-213.333333 213.333333z m13.141333-315.754666a21.717333 21.717333 0 0 0-14.869333-5.717334c-5.802667 0-10.88 1.877333-15.210667 5.632-4.330667 3.776-6.485333 9.024-6.485333 15.786667 0 5.994667 2.090667 11.050667 6.272 15.146667a21.226667 21.226667 0 0 0 15.445333 6.144c5.973333 0 11.029333-2.048 15.146667-6.144a20.565333 20.565333 0 0 0 6.122667-15.146667c0-6.656-2.133333-11.904-6.421334-15.701333z m53.354667 132.266666a65.045333 65.045333 0 0 0-11.733333-15.786666 853.333333 853.333333 0 0 0-24.32-22.336c-3.264-2.965333-5.845333-5.546667-7.808-7.786667-1.941333-2.24-3.413333-4.288-4.352-6.144-0.96-1.856-1.706667-3.712-2.218667-5.568-0.512-1.856-1.301333-5.12-2.346667-9.813333-1.813333-9.877333-7.466667-14.848-17.002666-14.848a17.365333 17.365333 0 0 0-12.501334 4.864c-3.392 3.242667-5.077333 8.042667-5.077333 14.421333 0 8 1.237333 14.933333 3.712 20.8 2.474667 5.845333 5.76 10.986667 9.856 15.424 4.096 4.437333 9.621333 9.685333 16.576 15.786667 6.101333 5.333333 10.496 9.365333 13.226667 12.074666 2.688 2.709333 4.992 5.738667 6.848 9.066667 1.856 3.328 2.773333 6.933333 2.773333 10.858667 0 7.616-2.837333 14.037333-8.490667 19.285333-5.674667 5.226667-12.970667 7.850667-21.930666 7.850667-10.474667 0-18.197333-2.645333-23.146667-7.936-4.949333-5.290667-9.130667-13.056-12.586667-23.36-3.221333-10.752-9.386667-16.128-18.410666-16.128a18.090667 18.090667 0 0 0-13.504 5.653333c-3.669333 3.754667-5.482667 7.829333-5.482667 12.202667 0 9.045333 2.901333 18.218667 8.704 27.52 5.824 9.258667 14.293333 16.96 25.429333 23.04 11.136 6.101333 24.149333 9.173333 38.997334 9.173333 13.824 0 26.005333-2.56 36.586666-7.658667 10.56-5.098667 18.730667-12.032 24.490667-20.778666 5.76-8.768 8.64-18.282667 8.64-28.586667 0-8.106667-1.642667-15.189333-4.906667-21.269333h-0.021333z"  horiz-adv-x="1024" />

    
    <glyph glyph-name="icon_down" unicode="&#58895;" d="M512 192l320 384H192z"  horiz-adv-x="1024" />

    
    <glyph glyph-name="icon_up" unicode="&#58894;" d="M512 576l320-384H192z"  horiz-adv-x="1024" />

    
    <glyph glyph-name="checkbox_off" unicode="&#58896;" d="M192 832h640a128 128 0 0 0 128-128v-640a128 128 0 0 0-128-128H192a128 128 0 0 0-128 128V704a128 128 0 0 0 128 128z m0-64a64 64 0 0 1-64-64v-640a64 64 0 0 1 64-64h640a64 64 0 0 1 64 64V704a64 64 0 0 1-64 64H192z"  horiz-adv-x="1024" />

    
    <glyph glyph-name="checkbox_on" unicode="&#58897;" d="M436.992 160.96l45.312-45.248 361.984 361.984-90.496 90.56-271.488-271.552-135.808 135.744L256 341.952l180.992-180.992zM192 832h640a128 128 0 0 0 128-128v-640a128 128 0 0 0-128-128H192a128 128 0 0 0-128 128V704a128 128 0 0 0 128 128z"  horiz-adv-x="1024" />

    
    <glyph glyph-name="icon_question" unicode="&#58898;" d="M512 832a448 448 0 1 1 0-896A448 448 0 0 1 512 832z m0-820.032A372.032 372.032 0 0 0 512 756.032a372.032 372.032 0 0 0 0-744.064zM623.616 579.328A168.576 168.576 0 0 1 512 620.032c-41.984 0-81.6-14.528-111.616-40.704-31.168-27.328-48.384-64-48.384-103.296v-7.68c0-4.352 3.584-7.936 8-7.936h48a8 8 0 0 1 8 8v7.616c0 44.096 43.072 80 96 80s96-35.904 96-80c0-31.104-22.016-59.648-56.128-72.704a111.744 111.744 0 0 1-72-105.856v-21.44c0-4.48 3.648-8.064 8-8.064h48a8 8 0 0 1 8 8.064v22.656c0 19.712 12.416 37.76 30.912 44.8 59.008 22.72 97.088 74.688 97.088 132.48 0.128 39.36-17.088 76.032-48.256 103.36zM472 163.968a40 40 0 1 1 80 0 40 40 0 0 1-80 0z"  horiz-adv-x="1024" />

    
    <glyph glyph-name="status_wait" unicode="&#58899;" d="M512 896a512 512 0 1 1 0-1024A512 512 0 0 1 512 896z m256.085333-568.490667H496.213333a41.642667 41.642667 0 0 0-41.898666 41.898667V641.28a41.984 41.984 0 1 0 83.968 0v-229.802667H768a41.984 41.984 0 1 0 0-83.968z"  horiz-adv-x="1024" />

    
    <glyph glyph-name="status_success" unicode="&#58900;" d="M512 896a512 512 0 1 0 0-1024A512 512 0 0 0 512 896z m281.514667-389.290667a40.362667 40.362667 0 0 1 0 56.234667 38.229333 38.229333 0 0 1-54.954667 0l-302.08-309.162667-151.04 154.538667a38.229333 38.229333 0 0 1-54.954667 0 40.362667 40.362667 0 0 1 0-56.149333l178.517334-182.784a38.229333 38.229333 0 0 1 54.954666 0l329.557334 337.322666z"  horiz-adv-x="1024" />

    
    <glyph glyph-name="status_danger" unicode="&#58901;" d="M512 896a512 512 0 1 1 0-1024A512 512 0 0 1 512 896z m0-786.176a59.648 59.648 0 1 0-0.085333 119.296A59.648 59.648 0 0 0 512 109.82399999999996z m59.733333 258.133333a59.648 59.648 0 0 0-119.466666 0V645.888a59.648 59.648 0 0 0 119.466666 0v-277.930667z"  horiz-adv-x="1024" />

    
    <glyph glyph-name="mark_common" unicode="&#58902;" d="M0 896m204.8 0l614.4 0q204.8 0 204.8-204.8l0-614.4q0-204.8-204.8-204.8l-614.4 0q-204.8 0-204.8 204.8l0 614.4q0 204.8 204.8 204.8ZM424.7552 566.8864H263.168V621.568h122.88a386.9696 386.9696 0 0 1-28.2624 50.3808l61.44 9.8304c9.8304-17.8176 19.6608-38.0928 29.4912-60.2112h117.9648c13.5168 20.8896 25.8048 43.008 36.2496 65.7408l55.9104-19.6608c-8.6016-16.5888-18.432-31.9488-28.2624-46.08h130.2528v-54.6816h-162.2016v-106.2912h78.6432l-41.1648 21.504c20.8896 25.1904 37.4784 50.3808 49.7664 76.1856l46.6944-22.1184c-12.288-25.8048-28.8768-50.9952-48.5376-75.5712h100.1472v-54.6816H239.8208V460.5952h98.304a509.2864 509.2864 0 0 1-39.936 79.872l50.9952 16.5888c14.7456-24.576 28.2624-50.3808 39.936-78.0288l-42.3936-18.432h78.0288V566.8864z m117.9648 0H480.6656v-106.2912H542.72V566.8864z m163.4304-194.7648v-255.5904H650.24v26.4192H372.5312v-26.4192H316.6208v255.5904h389.5296zM372.5312 191.488H650.24v42.3936H372.5312v-42.3936z m0 88.4736H650.24v44.2368H372.5312v-44.2368z"  horiz-adv-x="1024" />

    
    <glyph glyph-name="mark_company" unicode="&#58903;" d="M0 896m204.8 0l614.4 0q204.8 0 204.8-204.8l0-614.4q0-204.8-204.8-204.8l-614.4 0q-204.8 0-204.8 204.8l0 614.4q0 204.8 204.8 204.8ZM490.496 682.3936h43.008c77.4144-84.1728 165.888-150.528 266.6496-198.4512l-31.9488-56.5248A828.8256 828.8256 0 0 0 512 630.1696C446.8736 551.5264 360.2432 483.9424 253.3376 426.8032L222.0032 483.328c107.52 52.8384 197.2224 119.1936 268.4928 199.0656zM500.3264 517.12h58.368v-131.4816h162.816v-55.9104h-162.816v-135.168h207.0528v-56.5248H250.88V194.56h88.4736V428.6464h57.7536V194.56h103.2192V517.12z"  horiz-adv-x="1024" />

    
    <glyph glyph-name="mark_bank" unicode="&#58906;" d="M0 896m204.8 0l614.4 0q204.8 0 204.8-204.8l0-614.4q0-204.8-204.8-204.8l-614.4 0q-204.8 0-204.8 204.8l0 614.4q0 204.8 204.8 204.8ZM305.5616 681.7792l55.9104-11.6736c-4.9152-17.8176-9.216-35.0208-14.1312-51.6096h111.2064v-55.9104H328.2944c-8.6016-22.1184-18.432-43.6224-28.2624-63.8976h144.9984v-52.8384H385.4336v-67.584h79.872v-53.4528h-79.872v-125.952c20.8896 7.3728 41.1648 15.9744 62.0544 26.4192l9.8304-49.152c-36.864-18.432-79.872-33.792-129.024-46.08l-22.1184 47.9232c15.9744 4.9152 24.576 12.288 24.576 22.7328v124.1088H245.3504v53.4528H330.752v67.584h-35.0208v44.2368a1086.464 1086.464 0 0 0-22.1184-38.7072l-47.3088 30.1056a682.1888 682.1888 0 0 1 79.2576 200.2944z m238.3872-182.4768v-57.7536h156.672V499.3024h-156.672z m156.672 50.9952V609.8944h-156.672v-59.5968h156.672z m53.4528-181.8624l37.4784-36.864c-25.8048-31.9488-54.6816-56.5248-86.6304-73.728a338.688 338.688 0 0 1 92.16-87.2448l-30.72-49.7664c-92.7744 66.3552-148.6848 155.4432-167.1168 268.4928h-55.296v-194.1504a673.8432 673.8432 0 0 1 92.7744 33.792l13.5168-50.9952c-44.2368-17.8176-98.9184-35.0208-164.6592-51.6096l-12.9024 48.5376c10.4448 3.6864 15.9744 9.216 15.9744 16.5888V662.1184000000001h265.4208v-272.7936H650.24c6.144-31.9488 15.36-60.8256 28.8768-87.8592 25.8048 15.36 50.9952 37.4784 74.9568 66.9696z"  horiz-adv-x="1024" />

    
    <glyph glyph-name="mark_plusone" unicode="&#58905;" d="M0 896m204.8 0l614.4 0q204.8 0 204.8-204.8l0-614.4q0-204.8-204.8-204.8l-614.4 0q-204.8 0-204.8 204.8l0 614.4q0 204.8 204.8 204.8ZM667.8528 179.2V539.8016h-5.12l-108.544-76.8V531.712l113.9712 80.384h66.8672V179.2zM331.776 350.976v-124.4672H272.6912v124.4672H153.6V413.0816h119.0912V537.6H331.776v-124.5184h119.3984v-62.1056z"  horiz-adv-x="1024" />

    
    <glyph glyph-name="mark_half_year" unicode="&#58904;" d="M0 896m204.8 0l614.4 0q204.8 0 204.8-204.8l0-614.4q0-204.8-204.8-204.8l-614.4 0q-204.8 0-204.8 204.8l0 614.4q0 204.8 204.8 204.8ZM341.8112 663.3471999999999c28.8768-39.936 56.5248-83.5584 82.944-130.8672l-54.6816-27.0336a911.7184 911.7184 0 0 1-81.7152 132.096l53.4528 25.8048zM277.2992 486.4h205.2096V682.3936h58.9824V486.4H742.4v-56.5248h-200.9088v-95.232h243.9168v-56.5248h-243.9168v-164.6592H482.5088v164.6592H238.592v56.5248h243.9168v95.232H277.2992V486.4z m398.7456 174.4896l51.6096-25.1904c-19.6608-45.4656-44.8512-89.088-76.1856-132.096l-51.6096 27.0336a702.208 702.208 0 0 1 76.1856 130.2528z"  horiz-adv-x="1024" />

    
    <glyph glyph-name="nav_note_dot_dark" unicode="&#58910;" d="M511.786756 896c282.676885 0 511.786756-229.706955 511.786755-511.786756 0-282.676885-229.706955-511.786756-511.786755-511.786755-282.676885 0-511.786756 229.706955-511.786756 511.786755 0 282.591587 229.706955 511.786756 511.786756 511.786756zM255.893378 384.213244c0-140.997251 114.810829-255.893378 255.893378-255.893377 140.997251 0 255.893378 114.810829 255.893377 255.893377 0 140.997251-114.810829 255.893378-255.893377 255.893378-140.997251 0-255.893378-114.810829-255.893378-255.893378z"  horiz-adv-x="1024" />

    
    <glyph glyph-name="nav_note_dot_white" unicode="&#58909;" d="M511.786756 896c282.676885 0 511.786756-229.706955 511.786755-511.786756 0-282.676885-229.706955-511.786756-511.786755-511.786755-282.676885 0-511.786756 229.706955-511.786756 511.786755 0 282.591587 229.706955 511.786756 511.786756 511.786756zM255.893378 384.213244c0-140.997251 114.810829-255.893378 255.893378-255.893377 140.997251 0 255.893378 114.810829 255.893377 255.893377 0 140.997251-114.810829 255.893378-255.893377 255.893378-140.997251 0-255.893378-114.810829-255.893378-255.893378z"  horiz-adv-x="1024" />

    
    <glyph glyph-name="icon_date" unicode="&#58911;" d="M73.142857 530.285714v-585.142857h877.714286V749.714286h-146.285714v-73.142857h-73.142858V749.714286H292.571429v-73.142857H219.428571V749.714286H73.142857v-146.285715h877.714286v-73.142857H73.142857z m219.428572 292.571429h438.857142V896h73.142858v-73.142857h219.428571v-950.857143H0V822.857143h219.428571V896h73.142858v-73.142857zM219.428571 384h146.285715v-73.142857H219.428571V384z m0-219.428571h146.285715v-73.142858H219.428571v73.142858z m219.428572 219.428571h146.285714v-73.142857H438.857143V384z m0-219.428571h146.285714v-73.142858H438.857143v73.142858z m219.428571 219.428571h146.285715v-73.142857H658.285714V384z m0-219.428571h146.285715v-73.142858H658.285714v73.142858z"  horiz-adv-x="1024" />

    
    <glyph glyph-name="switch_off" unicode="&#58912;" d="M512.330323 896C229.342968 896 0 666.822194 0 384 0 101.24387100000001 228.946581-128 512.330323-128h659.984516C1455.302194-128 1684.645161 101.17780600000003 1684.645161 384 1684.645161 666.756129 1455.698581 896 1172.314839 896H512.330323z m0-49.548387h659.984516c255.867871 0 462.781935-206.914065 462.781935-462.451613 0-255.438452-207.14529-462.451613-462.781935-462.451613H512.330323c-255.867871 0-462.781935 206.914065-462.781936 462.451613 0 255.438452 207.14529 462.451613 462.781936 462.451613zM512-94.96774200000004C776.522323-94.96774200000004 990.967742 119.47767699999997 990.967742 384S776.522323 862.967742 512 862.967742 33.032258 648.522323 33.032258 384 247.477677-94.96774200000004 512-94.96774200000004z m0 16.516129c-255.405419 0-462.451613 207.046194-462.451613 462.451613s207.046194 462.451613 462.451613 462.451613 462.451613-207.046194 462.451613-462.451613-207.046194-462.451613-462.451613-462.451613z"  horiz-adv-x="1684" />

    
    <glyph glyph-name="switch_on" unicode="&#58913;" d="M512 896h660.645161C1456.722581 896 1684.645161 668.077419 1684.645161 384S1456.722581-128 1172.645161-128h-660.645161C227.922581-128 0 99.92258100000004 0 384S227.922581 896 512 896zM1172.645161-94.96774200000004c264.258065 0 478.967742 214.709677 478.967742 478.967742S1436.903226 862.967742 1172.645161 862.967742 693.677419 648.258065 693.677419 384 908.387097-94.96774200000004 1172.645161-94.96774200000004zM1172.645161-78.45161299999995c-254.348387 0-462.451613 208.103226-462.451613 462.451613s208.103226 462.451613 462.451613 462.451613 462.451613-208.103226 462.451613-462.451613-208.103226-462.451613-462.451613-462.451613z"  horiz-adv-x="1684" />

    
    <glyph glyph-name="icon_close" unicode="&#58914;" d="M585.9328 384L1008.7424 806.912a52.224 52.224 0 0 1-73.9328 73.728L512.1024 458.0352 89.088 880.7424A52.224 52.224 0 0 1 15.1552 806.912L438.272 384 15.36-38.912000000000035a52.224 52.224 0 0 1 73.8304-73.728L512 310.27200000000005l423.0144-422.912a52.224 52.224 0 0 1 73.8304 0 52.4288 52.4288 0 0 1-0.1024 73.728L585.9328 384z"  horiz-adv-x="1024" />

    
    <glyph glyph-name="icon_upload" unicode="&#58915;" d="M710.910902 460.715513h2.218662-2.218662z m-22.755511-9.272871l-262.712378-261.802157c-12.885308-12.515531-12.885308-33.279935 0-46.535021 12.543976-12.543976 33.706601-12.543976 46.591909 0l206.108044 205.908933v-442.936028c0-17.919965 14.677305-33.30838 32.967047-33.308379s32.995491 15.388415 32.995491 33.279935V349.01439700000003l206.420932-205.937377c12.913753-12.515531 33.706601-12.515531 46.961687 0 12.174199 13.255085 12.174199 34.047934 0 46.563465l-263.451933 261.802157-1.422219 1.42222-1.422219 1.422219c-1.791997 1.791997-3.24266 2.503106-3.953771 3.583993h-1.791996c-2.161774 1.791997-3.583993 2.161774-5.37599 2.161774l-3.214216 0.711109-2.53155 0.71111H708.265574l-2.844439-0.71111-2.872883-0.711109a8.248873 8.248873 0 0 1-5.034657-1.42222l-1.791997-0.739554c-1.422219-1.080887-2.844439-1.791997-3.583993-2.503106l-2.503106-1.791997-1.422219-2.133329z m451.270233-469.84442c47.672796 0.341333 91.761599 19.683517 122.225541 50.830124a175.388103 175.388103 0 0 1 50.915456 123.903759c0 42.979472-14.705749 81.635397-40.163477 112.810447a175.075215 175.075215 0 0 1-104.305575 59.107441c-26.879948 5.347545-45.8808 27.93239-45.8808 54.044339v0.369777c0 103.509132-41.92703 198.029837-110.022897 265.727484a375.465937 375.465937 0 0 1-265.613706 110.307341c-77.05585 0-148.365934-22.926178-207.501819-61.24077-61.297659-41.187475-109.681565-98.133143-139.093063-166.541899a54.983004 54.983004 0 0 0-49.095015-33.649712c-67.384758-3.583993-127.231753-33.279935-171.320556-80.213177-43.719026-45.511023-69.887864-108.145567-69.887864-176.924101a257.763054 257.763054 0 0 1 75.263854-182.982755h0.711109a255.743503 255.743503 0 0 1 182.072535-75.548298h180.67876c30.435496 0 55.182115-25.087951 55.182115-54.812337S578.843603-127.99800900000002 548.408107-127.99800900000002h-180.67876a363.43396 363.43396 0 0 0-260.209272 108.515345A366.335288 366.335288 0 0 0 0.000284 240.129275c0 97.052256 38.001704 186.595193 100.351805 252.472398a377.1726 377.1726 0 0 0 212.906253 111.018451 485.090612 485.090612 0 0 0 165.944566 183.72231 481.677286 481.677286 0 0 0 267.377258 80.213177c133.347296 0 254.861727-54.072784 343.039333-141.823724 78.47807-78.790958 130.445969-184.035198 140.856615-300.799415 48.725239-16.127969 92.102932-47.274575 124.728646-85.958944A281.940785 281.940785 0 0 0 1422.219741 156.360549a284.387003 284.387003 0 0 0-83.142949-201.272497h-0.369777c-44.799913-45.112801-105.016685-74.495855-172.031666-82.005174-3.95377-0.369777-8.248873-1.080887-12.543975-1.080887h-261.659936c-30.094164 0-54.471005 25.059507-54.471005 54.783894s24.376841 54.812338 54.471005 54.812337h246.954186z"  horiz-adv-x="1422" />

    
    <glyph glyph-name="radio_off" unicode="&#58907;" d="M512 896C230.4 896 0 665.6 0 384s230.4-512 512-512 512 230.4 512 512S793.6 896 512 896z m0-921.6c-225.28 0-409.6 184.32-409.6 409.6s184.32 409.6 409.6 409.6 409.6-184.32 409.6-409.6-184.32-409.6-409.6-409.6z"  horiz-adv-x="1024" />

    
    <glyph glyph-name="radio_on" unicode="&#58908;" d="M512 640c-143.36 0-256-112.64-256-256s112.64-256 256-256 256 112.64 256 256-112.64 256-256 256z m0 256C230.4 896 0 665.6 0 384s230.4-512 512-512 512 230.4 512 512S793.6 896 512 896z m0-921.6c-225.28 0-409.6 184.32-409.6 409.6s184.32 409.6 409.6 409.6 409.6-184.32 409.6-409.6-184.32-409.6-409.6-409.6z"  horiz-adv-x="1024" />

    
    <glyph glyph-name="icon_lightning" unicode="&#58916;" d="M558.011733 538.897067h261.461334L194.833067-128l208.213333 469.6064H170.666667L403.0464 896H853.333333z"  horiz-adv-x="1024" />

    
    <glyph glyph-name="icon_backtop" unicode="&#58917;" d="M512 536.096L288.96 320.528h126.592L414.432 144h194.576V321.072l129.888 1.664L512 536.096zM272 624h480v-70.768H272V624z"  horiz-adv-x="1024" />

    
    <glyph glyph-name="icon_wechat" unicode="&#58918;" d="M602.56 450.16c5.888 0 11.68-0.448 17.504-1.088C604.384 521.92 526.336 576 437.216 576 337.6 576 256 508.32 256 422.304c0-49.632 27.136-90.384 72.512-122.048L310.4 245.92l63.36 31.648c22.656-4.432 40.832-9.024 63.456-9.024a227.2 227.2 0 0 1 16.896 0.672 135.152 135.152 0 0 0-5.6 37.92c0.032 78.944 68 143.04 154.048 143.04z m-97.408 48.992c13.696 0 22.688-8.96 22.688-22.56 0-13.536-8.992-22.592-22.688-22.592-13.536 0-27.168 9.056-27.168 22.592 0 13.616 13.6 22.56 27.168 22.56z m-126.816-45.152c-13.6 0-27.296 9.056-27.296 22.592 0 13.6 13.696 22.56 27.296 22.56s22.624-8.944 22.624-22.56c0-13.536-9.024-22.592-22.624-22.592zM768 309.28c0 72.256-72.512 131.136-153.952 131.136-86.24 0-154.112-58.912-154.112-131.136 0-72.448 67.904-131.136 154.112-131.136 18.048 0 36.256 4.496 54.368 9.024L718.112 160l-13.632 45.184c36.384 27.264 63.52 63.36 63.52 104.112z m-203.936 22.624c-8.992 0-18.112 8.944-18.112 18.064 0 9.008 9.12 18.064 18.112 18.064 13.76 0 22.688-9.056 22.688-18.064 0-9.12-8.928-18.064-22.688-18.064z m99.68 0c-8.928 0-18.016 8.944-18.016 18.064 0 9.008 9.056 18.064 18.016 18.064 13.632 0 22.688-9.056 22.688-18.064 0-9.12-9.056-18.064-22.688-18.064z"  horiz-adv-x="1024" />

    
    <glyph glyph-name="icon_tinyapp" unicode="&#58919;" d="M512 640c141.12 0 256-114.88 256-256s-114.88-256-256-256-256 114.88-256 256 114.88 256 256 256z m127.264-137.92a67.056 67.056 0 0 1-54.4 5.392c-17.6-5.872-32-18.88-39.664-35.744l-95.872-158.992-1.056-2a33.376 33.376 0 0 0-19.872-18.272 33.088 33.088 0 0 0-42.128 40.864c4.736 15.344 18.864 17.664 50.064 19.344l2.336 0.128a16.848 16.848 0 1 1-1.808 33.664l-2.256-0.128c-30.48-1.6-68.416-3.68-80.544-43.136a66.912 66.912 0 0 1 30.672-77.328 67.264 67.264 0 0 1 54.4-5.472c17.6 5.872 32 18.88 39.664 35.728l95.872 159.136 1.056 2a33.376 33.376 0 0 0 19.872 18.272 33.088 33.088 0 0 0 42.128-40.864c-4.72-15.472-18.992-17.744-50.464-19.408l-1.872-0.064c-9.328-0.48-16.464-8.4-16-17.728 0.48-9.344 8.4-16.544 17.744-16l1.872 0.064c30.656 1.6 68.8 3.52 80.992 43.136 9.008 29.6-3.872 62.128-30.72 77.392z"  horiz-adv-x="1024" />

    
    <glyph glyph-name="icon_phone" unicode="&#58920;" d="M607.584 300.96c59.456-30.864 99.536-89.632 99.424-156.96l-390.016 0.72c0.128 66.72 39.728 124.848 98.4 155.728a147.584 147.584 0 0 0-49.648 110.72c0 81.248 65.152 147.168 145.712 147.168 80.272 0 145.424-65.92 145.424-147.168 0-5.28-0.272-10.848-0.832-15.84-16.48-7.808-34.352-13.92-53.056-18.368-16.48-3.904-34.08-6.688-52.224-8.08a26.128 26.128 0 0 1-23.104 13.92h-29.12c-14.304 0-26.128-11.968-26.128-26.432 0-14.464 11.824-26.432 26.112-26.432h29.136c10.72 0 20.08 6.672 23.92 15.856a398.08 398.08 0 0 1 56.368 8.64c14.832 3.6 28.864 7.776 42.336 13.344a147.968 147.968 0 0 0-42.704-66.816zM512.544 624c58.288 0 111.072-23.92 149.008-62.592a213.536 213.536 0 0 0 53.056-89.872h6.32c17.056 0 31.072-14.176 31.072-31.424v-49.248c0-17.248-14.016-31.44-31.072-31.44h-40.4V470.72a180.048 180.048 0 0 1-41.792 67.04 175.472 175.472 0 0 1-125.92 52.864c-49.2 0-93.744-20.304-125.904-52.848a176.352 176.352 0 0 1-43.152-70.4v-107.664h-40.688c-17.056 0-31.072 14.192-31.072 31.44v48.96c0 17.264 14.016 31.44 31.072 31.44h7.408a213.536 213.536 0 0 0 53.072 89.872C401.76 600.08 454.272 624 512.544 624z"  horiz-adv-x="1024" />

    
    <glyph glyph-name="index_wishlist" unicode="&#58921;" d="M512-128A512 512 0 1 0 512 896a512 512 0 0 0 0-1024z m33.024 689.024c-19.008-18.944-32.256-47.552-32.256-47.616 0 0-14.08 27.84-33.536 47.04-19.456 19.2-47.744 36.864-85.696 36.864C303.36 597.312 256 515.264 256 433.28 256 297.024 512.768 128 512.768 128S768 295.36 768 433.28c0 83.648-48.896 164.032-136 164.032-39.68 0-67.904-17.344-86.976-36.288z"  horiz-adv-x="1024" />

    
    <glyph glyph-name="icon_ticket_share" unicode="&#58922;" d="M0 25.728v-115.2l47.808 89.344c89.28 148.544 257.408 236.096 464.128 243.008v-281.024l512 434.752-512 435.392v-282.24A531.52 531.52 0 0 1 0 25.792z m57.6 74.304A483.776 483.776 0 0 0 537.28 499.2H563.2v230.4l383.552-330.624L563.2 68.928V294.72h-25.92A624.832 624.832 0 0 1 57.6 99.52v0.512z"  horiz-adv-x="1024" />

    
    <glyph glyph-name="icon_detail_hide" unicode="&#58923;" d="M510.72 570.88L55.296 115.072l-51.2 47.36 511.616 511.744L1024 165.376l-54.016-53.76C818.944 262.784 666.88 415.232 510.848 570.88z"  horiz-adv-x="1024" />

    
    <glyph glyph-name="icon_detail_show" unicode="&#58924;" d="M510.72 197.12L55.296 652.928l-51.2-47.36 511.616-511.744L1024 602.624l-54.016 53.76C818.944 505.216 666.88 352.768 510.848 197.12z"  horiz-adv-x="1024" />

    
    <glyph glyph-name="top_1" unicode="&#58926;" d="M870.692571-122.148571h-351.085714V752.054857H70.217143V887.222857h1281.462857l-77.238857-135.168h-403.748572V-122.148571zM1848.466286 752.054857v-739.035428h517.851428V887.222857h356.352v-1009.371428H1492.114286V887.222857h874.203428l-122.88-135.168h-394.971428zM3214.189714 272.822857v-394.971428h-351.085714V887.222857h746.057143l-101.814857-135.168h-293.156572V404.48h394.971429V887.222857h356.352v-614.4H3214.189714zM5966.701714 888.978286v-301.933715l-538.916571-575.780571h616.155428l-77.238857-131.657143h-983.04v107.081143l640.731429 668.818286V757.321143h-628.443429v131.657143h970.752z"  horiz-adv-x="6070" />

    
    <glyph glyph-name="top_2" unicode="&#58927;" d="M870.692571-122.148571h-351.085714V752.054857H70.217143V887.222857h1281.462857l-77.238857-135.168h-403.748572V-122.148571zM1848.466286 752.054857v-739.035428h517.851428V887.222857h356.352v-1009.371428H1492.114286V887.222857h874.203428l-122.88-135.168h-394.971428zM3214.189714 272.822857v-394.971428h-351.085714V887.222857h746.057143l-101.814857-135.168h-293.156572V404.48h394.971429V887.222857h356.352v-614.4H3214.189714z m2124.068572-393.216h-354.596572V888.978286h354.596572v-1009.371429z"  horiz-adv-x="5339" />

    
    <glyph glyph-name="top_" unicode="&#58925;" d="M870.692571-122.148571h-351.085714V752.054857H70.217143V887.222857h1281.462857l-77.238857-135.168h-403.748572V-122.148571zM1848.466286 752.054857v-739.035428h517.851428V887.222857h356.352v-1009.371428H1492.114286V887.222857h874.203428l-122.88-135.168h-394.971428zM3214.189714 272.822857v-394.971428h-351.085714V887.222857h746.057143l-101.814857-135.168h-293.156572V404.48h394.971429V887.222857h356.352v-614.4H3214.189714z m2443.556572 182.564572V759.076571h-661.796572V888.978286h1000.594286v-424.813715l-166.765714-64.950857 186.075428-103.570285v-416.036572H4983.661714v128.146286h674.084572V321.974857h-612.644572V455.387429h612.644572z"  horiz-adv-x="6070" />

    
    <glyph glyph-name="member_icon_account" unicode="&#58928;" d="M347.136 441.984A235.648 235.648 0 0 1 512 374.976a235.52 235.52 0 0 1 164.864 67.008 226.752 226.752 0 0 1 68.288 161.664 226.624 226.624 0 0 1-68.288 161.728 235.84 235.84 0 0 1-75.648 49.536 241.664 241.664 0 0 1-178.432 0A230.848 230.848 0 0 1 296.576 691.2c-11.584-27.52-17.728-57.728-17.728-87.488a226.688 226.688 0 0 1 68.288-161.664z m351.68-119.296H325.12c-108.672 0-197.12-86.72-197.12-193.28C128 22.656 216.448-64 325.12-64h373.76c108.672 0 197.12 86.72 197.12 193.344s-88.448 193.344-197.12 193.344z"  horiz-adv-x="1024" />

    
    <glyph glyph-name="member_icon_exit" unicode="&#58929;" d="M320.128 640h-48a16 16 0 0 1-16-16v-480a16 16 0 0 1 16-16h48a64 64 0 0 0 64-64v-64a64 64 0 0 0-64-64H160A96 96 0 0 0 64 32v704A96 96 0 0 0 160 832h160.128a64 64 0 0 0 64-64v-64a64 64 0 0 0-64-64z m321.536-144H396.288a64 64 0 0 1-64-64v-96a64 64 0 0 1 64-64h245.376a16 16 0 0 0 16-16v-74.88a32 32 0 0 1 52.672-24.32l238.848 202.88a32 32 0 0 1 0 48l-238.848 203.52a32 32 0 0 1-52.672-24.32V512a16 16 0 0 0-16-16z"  horiz-adv-x="1024" />

    
    <glyph glyph-name="member_icon_trade" unicode="&#58930;" d="M260.864-64L64 134.4l140.992 144.832a210.048 210.048 0 0 0 222.72 52.096L458.688 320h190.464c16.256 0 31.808-6.848 43.072-18.88a63.232 63.232 0 0 0 16.896-45.12c-1.856-34.112-29.44-60.672-62.528-60.16H532.288a23.68 23.68 0 0 1-23.296-24.128 23.68 23.68 0 0 1 23.296-24.064h114.496c58.176-0.256 106.24 46.848 109.056 106.944v1.536l93.568 107.712c12.544 14.592 30.464 22.976 49.344 23.04a58.88 58.88 0 0 0 38.592-14.144 65.856 65.856 0 0 0 7.296-92.032l-198.912-235.136c-28.16-33.408-68.928-52.48-111.744-52.544H316.096L260.864-64z m409.472 452.736a37.12 37.12 0 0 1 29.824-15.232 37.12 37.12 0 0 1 29.824 15.232l91.392 124.672a30.912 30.912 0 0 1 3.008 31.552 28.992 28.992 0 0 1-26.112 16.704h-39.424l-4.992 175.36a27.904 27.904 0 0 1-27.456 27.776h-52.48a27.904 27.904 0 0 1-27.392-27.776l-5.248-175.36H601.6a28.992 28.992 0 0 1-26.048-16.64 30.912 30.912 0 0 1 2.944-31.616l91.84-124.672zM357.312 643.904h39.616l5.376-174.848c0-15.616 12.288-28.352 27.392-28.352h52.416a27.904 27.904 0 0 1 27.456 27.84L514.56 643.84h39.616c11.072 0 21.12 6.4 26.048 16.64a30.912 30.912 0 0 1-2.944 31.616L485.888 816.768A37.12 37.12 0 0 1 456.064 832a37.12 37.12 0 0 1-29.824-15.232L334.848 692.096a30.912 30.912 0 0 1-3.072-31.168 29.056 29.056 0 0 1 25.472-17.024z"  horiz-adv-x="1024" />

    
    <glyph glyph-name="member_icon_safety" unicode="&#58931;" d="M833.984 456.32h-71.04V605.44C762.88 730.496 650.432 832 512 832 373.632 832 260.992 730.432 260.992 605.44v-149.12h-71.04c-34.176 0-61.952-24.96-61.952-55.936v-408.32c0-31.04 27.776-56.064 62.016-56.064h644.032c34.24 0 61.952 25.024 61.952 56V400.384c0 30.912-27.776 55.936-62.016 55.936zM546.816 185.6v-89.216c0-4.032-3.648-7.296-8.128-7.36h-53.248c-4.48 0-8.192 3.328-8.192 7.36v89.152c-25.024 11.52-42.368 34.752-42.368 61.888 0 38.4 34.56 69.632 77.12 69.632 42.624 0 77.184-31.232 77.184-69.632 0-27.136-17.28-50.304-42.368-61.888z m119.808 270.72H357.376V601.792c0 76.928 69.44 139.584 154.688 139.584 85.312 0 154.624-62.656 154.624-139.52V456.32z"  horiz-adv-x="1024" />

    
    <glyph glyph-name="icon_refresh" unicode="&#58932;" d="M568.888889-128a512 512 0 1 0 0 1024 512 512 0 0 0 0-1024z m0 56.888889a455.111111 455.111111 0 1 1 0 910.222222 455.111111 455.111111 0 0 1 0-910.222222z m43.747555 246.044444a17.180444 17.180444 0 0 0 19.171556-6.371555c8.533333-8.533333 8.533333-21.333333 0-29.866667a27.989333 27.989333 0 0 0-9.557333-5.347555c-82.147556-17.066667-170.666667 5.347556-234.723556 69.347555-91.704889 92.728889-99.157333 237.795556-19.171555 337.009778H338.488889a21.390222 21.390222 0 0 0-21.333333 21.333333c0 11.776 9.614222 21.333333 21.333333 21.333334h85.333333a21.048889 21.048889 0 0 0 14.961778-6.371556c4.209778-3.185778 6.371556-8.533333 6.371556-14.961778v-85.333333a21.390222 21.390222 0 0 0-21.333334-21.333333 21.390222 21.390222 0 0 0-21.333333 21.333333v39.480889a211.285333 211.285333 0 0 1 15.985778-282.624 213.902222 213.902222 0 0 1 194.161777-57.628445z m187.733334 52.280889c11.719111 0 20.252444-7.452444 20.252444-19.228444a21.390222 21.390222 0 0 0-21.333333-21.333334h-85.333333a21.048889 21.048889 0 0 0-14.961778 6.428445c-4.266667 3.185778-6.371556 8.533333-6.371556 14.904889v85.333333c0 11.776 9.614222 21.333333 21.333334 21.333333s21.333333-9.557333 21.333333-21.333333v-39.480889a211.285333 211.285333 0 0 1-15.985778 282.737778 212.48 212.48 0 0 1-181.361778 59.733333 20.309333 20.309333 0 0 0-20.252444 5.290667 20.650667 20.650667 0 0 0 0 29.866667 18.773333 18.773333 0 0 0 13.880889 6.428444c77.880889 10.638222 158.890667-12.856889 218.680889-72.590222a256 256 0 0 0 21.276444-338.090667h28.842667z"  horiz-adv-x="1080" />

    
    <glyph glyph-name="icon_search" unicode="&#58933;" d="M685.652762 130.133972A426.836978 426.836978 0 0 0 0 469.333689c0 235.605137 191.146507 426.666311 427.007644 426.666311a426.836978 426.836978 0 0 0 427.007644-426.666311 425.130312 425.130312 0 0 0-88.063926-259.071784l241.749132-241.493132A56.831953 56.831953 0 0 0 967.84986-127.999147a57.002619 57.002619 0 0 0-40.447966 16.46932L685.652762 130.133972zM427.007644 782.250761A313.002406 313.002406 0 0 1 113.834572 469.333689a313.002406 313.002406 0 0 1 313.173072-312.917073A313.002406 313.002406 0 0 1 740.180717 469.333689a313.599739 313.599739 0 0 1-313.173073 312.917072z"  horiz-adv-x="1024" />

    
    <glyph glyph-name="icon_download" unicode="&#58934;" d="M1022.075788 136.099404c-1.450627 33.279085-23.892676 51.795909-53.331867 51.113261-29.268528-0.682648-48.553331-19.455465-51.283923-53.58786-2.047944-25.08731-0.255993-50.345282-0.85331-75.603254-1.365296-63.315592-15.359578-77.907191-80.211127-79.187156-62.462282-1.194634-124.924565-0.341324-187.386847-0.341324-144.209368 0-288.589397-0.170662-432.798765 0-99.4106 0.170662-108.029029 8.533099-108.455684 102.823839-0.085331 16.810204 0.767979 33.70574-0.85331 50.430614-3.413239 35.49769-20.479437 54.014515-49.32131 55.550472-31.14581 1.70662-53.843853-18.943479-56.318451-55.465141-2.133275-33.535078-0.85331-67.240818-0.682648-100.946558 0.85331-108.797008 50.17462-157.691663 161.787551-158.28898 116.220804-0.682648 232.526939-0.170662 348.833074-0.170662h103.335824c88.317571 0 176.635143-1.194634 264.867383 0.426655 77.82186 1.450627 134.822959 45.396085 141.308114 112.039585 4.949197 50.003958 3.413239 100.861226 1.365296 151.206509zM119.103286 470.852865L452.32079 145.571143c4.522542-4.437211 9.215747-8.789092 13.652958-13.311633 17.919507-17.663514 38.740268-27.64724 63.99824-18.260832a53.502529 53.502529 0 0 1 19.626127 12.799648 76.797888 76.797888 0 0 1 9.898394 7.850451c57.08643 54.185177 300.365073 292.343961 356.512863 347.382447 5.973169 5.973169 11.861007 12.287662 16.639542 19.199472 15.274247 22.186057 13.140972 43.945458-4.949197 63.315592-18.516824 19.88212-41.897514 20.73543-64.85155 9.642402-11.26369-5.375852-20.479437-15.188916-29.524522-23.978007-37.801627-36.692324-174.587199-170.064657-266.232678-259.576862V710.206283c0 41.982845 1.365296 84.051022-0.767979 125.948536-1.962613 38.91093-21.332747 58.79305-52.478557 59.731691-31.913789 1.109303-51.369254-17.919507-55.721134-56.318451-1.621289-14.506268-0.767979-29.353859-0.767979-44.03079v-484.509342l-14.762261-6.314493-85.330987 83.02705c-59.390367 57.854409-117.927424 116.476797-178.341762 173.307234-27.305916 25.599296-58.878381 26.111282-80.637782 5.973169-23.38069-21.759402-22.52738-47.700022 2.901253-78.163184 5.461183-6.399824 11.946338-12.117 18.004838-18.004838z"  horiz-adv-x="1024" />

    
    <glyph glyph-name="icon_match" unicode="&#58935;" d="M512-71.111111A455.111111 455.111111 0 1 1 512 839.111111a455.111111 455.111111 0 0 1 0-910.222222z m0-56.888889A512 512 0 1 0 512 896a512 512 0 0 0 0-1024z m11.548444 304.355556a1142.101333 1142.101333 0 0 1 92.842667 75.377777c53.191111 48.355556 92.387556 95.175111 111.274667 135.736889 8.021333 17.237333 11.889778 32.369778 11.889778 45.056C739.555556 503.751111 700.302222 554.666667 645.290667 554.666667c-25.144889 0-44.430222-9.784889-60.586667-27.363556a102.456889 102.456889 0 0 1-18.830222-27.932444l-49.493334-127.089778-55.523555 124.586667a120.547556 120.547556 0 0 1-21.162667 29.809777C422.627556 544.768 403.285333 554.666667 380.359111 554.666667 323.356444 554.666667 284.444444 503.808 284.444444 432.526222c0-13.425778 4.551111-29.866667 14.108445-48.753778 19.797333-39.424 58.311111-84.593778 109.852444-131.299555a1170.033778 1170.033778 0 0 1 104.504889-83.854222l10.638222 7.736889z m25.201778 395.548444A134.656 134.656 0 0 0 645.290667 611.555556C742.115556 611.555556 796.444444 523.832889 796.444444 432.526222 796.444444 282.168889 512.853333 99.555556 512.853333 99.555556S227.555556 283.932444 227.555556 432.526222C227.555556 522.069333 280.177778 611.555556 380.359111 611.555556c42.211556 0 73.557333-19.342222 95.175111-40.277334 21.617778-20.878222 37.319111-51.2 37.319111-51.256889 0 0 14.791111 31.232 35.84 51.882667z"  horiz-adv-x="1024" />

    
    <glyph glyph-name="icon_unlink" unicode="&#58936;" d="M426.619734 76.353156a342.268577 342.268577 0 0 1 130.110699-14.719852l-113.918861-113.918861A257.661423 257.661423 0 0 0 259.325407-127.9968a257.661423 257.661423 0 0 0-183.422166 75.775242 259.773402 259.773402 0 0 0 0 366.908331L234.237658 473.085189l72.447275-72.383276-10.687893-10.687893a50.879491 50.879491 0 0 1-7.295927-7.295927l-140.414596-140.414596a157.246428 157.246428 0 0 1 0-222.141779 155.96644 155.96644 0 0 1 111.03889-45.759542c42.175578 0 81.599184 16.255837 111.102889 45.759542l56.191438 56.191438z m521.466785 376.956231L731.640684 236.799552 1023.98976-55.677523 951.606484-127.9968l-300.540995 300.540995-0.255997-0.127999-78.463215 78.463215h0.319996L364.796352 458.877331l-0.191998-0.191998-72.383276 72.383276 0.127999 0.191998L0 823.673683 72.383276 895.99296l300.540995-300.540995a258.813412 258.813412 0 0 0 121.278787 29.823702 257.597424 257.597424 0 0 0 228.541715-136.830631l-78.07922-78.07922a156.03044 156.03044 0 0 1-39.423605 66.815332 157.118429 157.118429 0 0 1-153.918461 39.871601L659.193408 309.182828l68.799312 68.799312a50.879491 50.879491 0 0 1 7.295927 7.295927l140.414596 140.414596a157.246428 157.246428 0 0 1 0 222.141779 155.96644 155.96644 0 0 1-111.03889 45.759542c-42.175578 0-81.599184-16.255837-111.102889-45.759542l-56.191438-56.191438a342.908571 342.908571 0 0 1-130.110699 14.719852l113.918861 113.918861A257.661423 257.661423 0 0 0 764.664353 895.99296c69.439306 0 134.590654-26.879731 183.422166-75.775242a259.773402 259.773402 0 0 0 0-366.908331z m-601.785982-234.877651a257.853421 257.853421 0 0 0-45.055549 61.119388l63.359366 63.295368 198.01402-198.07802c-10.751892-1.343987-21.759782-2.04798-32.831672-2.047979a257.597424 257.597424 0 0 0-183.486165 75.711243z"  horiz-adv-x="1024" />

    
    <glyph glyph-name="icon_hot" unicode="&#58937;" d="M397.824-128s-492.224 108.032-281.28 594.112c24.448-20.8 39.296-57.216 50.752-78.336C193.92 642.624 400.128 667.456 370.56 896c79.744-26.24 331.264-103.808 370.368-389.12 37.504 65.088 95.36 99.712 139.136 106.624-11.008-51.2 6.912-139.52 46.912-229.824 61.696-139.84 65.664-418.176-245.44-490.24 46.912 101.12 65.664 265.216-168.768 404.224-41.472-175.808-250.88-222.592-114.88-425.664z"  horiz-adv-x="1024" />

    
    <glyph glyph-name="title_sale" unicode="&#58938;" d="M200.488421-68.93136800000002H27.162947V855.902316h514.802527l-111.238737-400.976842h111.238737L385.455158-2.9642109999999775h-174.618947l125.466947 354.41179H217.303579l109.945263 380.281263H200.488421v-800.66021zM554.900211 858.489263h601.465263V462.686316c0-19.833263-3.664842-38.157474-10.994527-54.972632a143.845053 143.845053 0 0 0-75.66821-75.021473 140.665263 140.665263 0 0 0-55.619369-10.994527H704.943158v-254.814316c0-12.072421 3.880421-21.989053 11.641263-29.749894 7.760842-7.760842 17.246316-11.641263 28.456421-11.641263h102.184421l42.684632-97.010527h-194.021053c-19.833263 0-38.157474 3.664842-54.972631 10.994527a149.665684 149.665684 0 0 0-44.624843 29.749894 134.413474 134.413474 0 0 0-30.396631 44.624842 140.665263 140.665263 0 0 0-10.994526 55.619369V858.489263z m410.031157-421.672421a38.696421 38.696421 0 0 1 28.456421 11.641263 38.696421 38.696421 0 0 1 11.641264 28.456421V532.533895H704.943158V436.816842h259.98821zM704.943158 742.076632v-95.717053h300.085895V742.076632H704.943158z m385.455158-650.617264h-64.673684l95.717052-166.858105h-165.564631l-201.781895 350.531369h165.564631l49.152-85.369264 33.630316 67.260632h160.390737l-72.434526-165.564632z m1041.246316 551.01979h-386.748632V770.533053h386.748632V858.489263h159.097263v-87.95621h60.793263v-128.053895h-60.793263v-575.59579a140.665263 140.665263 0 0 0-41.391158-100.890947 141.743158 141.743158 0 0 0-99.597474-41.391158h-232.825263l42.684632 128.053895h131.934315a38.696421 38.696421 0 0 1 28.456421 11.641263 40.313263 40.313263 0 0 1 11.641264 29.749895V642.479158z m-37.510737-443.661474H1914.341053l-148.749474 307.846737h179.792842l148.749474-307.846737zM1217.158737 855.255579v-0.646737h472.117895v-790.312421c0-18.970947-3.664842-36.864-10.994527-53.679158-7.329684-16.815158-17.030737-31.258947-29.103158-43.331368a141.312 141.312 0 0 0-42.684631-29.103158 128.377263 128.377263 0 0 0-53.032421-10.994526h-336.303158V855.255579z m328.542316-527.090526h-184.966737v-274.216421h150.042947c9.485474 0 17.677474 3.233684 24.576 9.701052A31.474526 31.474526 0 0 1 1545.701053 87.57894699999997v240.586106z m0 404.857263h-184.966737v-278.096842h184.966737v278.096842z m1416.353684 99.597473h128.053895l-63.380211-633.802105h-128.053895l63.380211 633.802105z m570.421895-726.93221L2889.620211-67.63789499999996v142.282106l368.64 99.597473h-124.173474V858.489263h156.510316v-676.486737l241.879579 65.967158v-142.282105z m5.173894 188.847158h-129.347368l-54.325895 538.085052h129.347369l54.325894-538.085052z m-970.105263-369.933474V480.794947h-156.510316V592.033684h156.510316V713.620211l-139.695158-3.880422V827.445895l417.792 14.22821v-117.706105l-143.575579-5.173895V592.033684h144.869053v-111.238737h-144.869053v-556.193684H2567.545263z m-155.216842 0l23.282526 507.041684h102.184421l-24.576-507.041684H2412.328421z m337.596632 0l-24.576 507.041684h102.184421l23.282526-507.041684h-100.890947zM4701.776842 858.489263c-31.043368-25.869474-77.392842-59.284211-139.048421-100.24421-61.655579-40.96-134.305684-82.997895-217.950316-126.113685 53.463579-18.108632 109.945263-34.923789 169.445053-50.445473a1717.625263 1717.625263 0 0 1 187.553684-37.510737V417.414737a1577.498947 1577.498947 0 0 0-280.683789 47.858526 2195.941053 2195.941053 0 0 0-257.401264 85.369263 2212.055579 2212.055579 0 0 0-256.754526-85.369263 1563.701895 1563.701895 0 0 0-280.037052-47.858526V544.175158a1717.625263 1717.625263 0 0 1 187.553684 37.510737c59.499789 15.521684 115.981474 32.336842 169.445052 50.445473-84.506947 43.115789-157.372632 85.153684-218.597052 126.113685-61.224421 40.96-107.358316 74.374737-138.401684 100.24421h243.173052c22.420211-11.210105 58.421895-31.258947 108.005053-60.146526 49.583158-28.887579 111.454316-60.146526 185.613473-93.776842 75.021474 33.630316 137.323789 64.889263 186.906948 93.776842 49.583158 28.887579 85.153684 48.936421 106.711579 60.146526h244.466526z m-602.758737-607.932631H3595.856842V369.55621099999996h503.161263v77.608421h164.271158v-77.608421h469.530948v-118.999579h-469.530948v-182.37979a140.665263 140.665263 0 0 0-41.391158-100.890947 141.743158 141.743158 0 0 0-99.597473-41.391158h-159.097264l56.912843 118.999579h37.510736a40.313263 40.313263 0 0 1 29.749895 11.641263 40.313263 40.313263 0 0 1 11.641263 29.749895v164.271158z m-372.520421-71.141053h187.553684L3787.290947-74.10526300000004h-187.553684l126.760421 253.520842zM4542.679579-74.10526300000004l-126.760421 253.520842h187.553684L4730.233263-74.10526300000004h-187.553684z"  horiz-adv-x="4742" />

    
    <glyph glyph-name="nav_icon_rent" unicode="&#58939;" d="M379.712 568.832H665.6c19.328 0 37.888 8.192 50.24 23.104 29.504 35.328 57.472 78.72 63.744 117.504 12.672 77.76-20.48 117.184-116.416 117.184-95.936 0-63.488-63.36-100.8-68.608-27.776-3.84-26.752 33.088-70.4 68.544-31.424 25.408-66.56-46.336-108.032-46.72-48.32-0.64-116.288 12.8-116.288-70.4 0-33.6 29.184-79.04 61.12-116.672 12.8-15.104 31.36-23.936 50.944-23.936z m356.672-74.048a80.256 80.256 0 0 1-60.48 27.136H370.816c-22.016 0-43.264-8.96-58.56-24.96C216.448 395.712 128 251.328 128 145.984 128 53.248 220.608-64 334.912-64h354.176C803.392-64 896 52.224 896 146.048c0 107.2-71.104 247.552-159.616 348.736zM643.2 366.976l-61.312-112.064a14.784 14.784 0 0 1 12.8-21.952h17.408a14.72 14.72 0 0 0 14.72-14.848 14.72 14.72 0 0 0-14.72-14.784H568.32a15.488 15.488 0 0 1-15.424-15.424v-7.36a14.72 14.72 0 0 1 14.72-14.784h44.48a14.72 14.72 0 0 0 14.72-14.848 14.72 14.72 0 0 0-14.72-14.72h-44.48a14.72 14.72 0 0 1-14.72-14.848v-37.696a14.72 14.72 0 0 0-14.72-14.784h-26.624a14.72 14.72 0 0 0-14.72 14.784v37.696a14.72 14.72 0 0 1-14.72 14.784h-44.032a14.72 14.72 0 0 0-14.72 14.784 14.72 14.72 0 0 0 14.72 14.848h43.968c8.192 0 14.72 6.592 14.784 14.784l0.128 7.232a15.424 15.424 0 0 1-15.424 15.616h-43.456a14.72 14.72 0 0 0-14.72 14.848 14.72 14.72 0 0 0 14.72 14.784h16.96a14.72 14.72 0 0 1 12.8 21.952l-61.312 112.064a14.784 14.784 0 0 0 12.8 21.952h29.248c5.568 0 10.688-3.2 13.12-8.128l49.92-100.352a14.72 14.72 0 0 1 26.304 0l49.92 100.352a14.72 14.72 0 0 0 13.12 8.128h29.248c11.264-0.192 18.368-12.16 12.992-22.016z"  horiz-adv-x="1024" />

    
    <glyph glyph-name="icon_upload_s" unicode="&#58941;" d="M488.521143 821.906286a34.596571 34.596571 0 0 0 49.005714 0l155.794286-155.940572a34.596571 34.596571 0 0 0-48.786286-48.859428L547.620571 714.020571v-577.828571a34.596571 34.596571 0 0 0-69.193142 0v577.828571L381.513143 617.106286a34.450286 34.450286 0 0 0-48.786286 0 34.669714 34.669714 0 0 0-0.146286 48.859428L488.594286 821.906286z m436.882286-566.272a34.596571 34.596571 0 0 1-34.596572-34.669715V25.600000000000023a20.626286 20.626286 0 0 0-20.626286-20.626286H153.673143a20.626286 20.626286 0 0 0-20.553143 20.626286V221.110857a34.596571 34.596571 0 0 1-69.12 0v-222.939428a62.171429 62.171429 0 0 1 62.098286-62.098286h771.803428a62.171429 62.171429 0 0 1 62.098286 62.171428V221.03771400000005a34.596571 34.596571 0 0 1-34.596571 34.523429z"  horiz-adv-x="1024" />

    
    <glyph glyph-name="member_icon_invite" unicode="&#58942;" d="M348.544 160.128l86.08-176.896a7.168 7.168 0 0 0-1.792-8.576l-1.6-1.024-76.8-36.864a6.528 6.528 0 0 0-7.424 0.96l-1.664 2.176-100.352 203.904 42.624 16.064 60.928 0.256zM183.36 430.144l88.768-252.864-45.76-17.28-57.216-21.568a24.128 24.128 0 0 0-29.312 10.112l-2.112 4.544-72.32 206.016a25.6 25.6 0 0 0 10.496 29.952l4.48 2.24 102.976 38.848z m743.168 137.344c62.848-179.008 34.624-354.56-62.848-391.36a105.408 105.408 0 0 0-43.968-6.464l-11.52 1.28-3.904 0.576a156.288 156.288 0 0 0-37.76 11.968 237.44 237.44 0 0 0-41.792 25.088 386.176 386.176 0 0 0-80.512 85.12 58.176 58.176 0 0 1 10.048 2.688c19.776 7.424 34.688 25.152 43.264 51.456 11.2 36.224 8.256 83.712-8.064 130.176-16.32 46.336-43.456 84.608-74.624 105.088-22.72 14.272-45.184 17.92-64.896 10.496a58.752 58.752 0 0 1-9.408-4.672c-2.688 43.072 0.32 83.712 8.832 118.528 4.48 17.92 10.048 33.792 16.64 47.488 3.776 8.128 8.192 15.808 13.12 23.04l7.872 10.56 9.024 10.24c11.904 12.096 25.28 20.928 39.744 26.368 97.536 36.8 227.968-78.784 290.752-257.664z m-393.536 161.28l-0.256-1.024a327.872 327.872 0 0 1-4.288-15.296c-10.432-42.88-13.056-93.568-7.68-146.752 4.736-46.08 15.36-92.928 31.68-139.392 16.256-46.336 37.184-89.472 62.272-128 28.48-43.968 62.08-81.088 97.088-107.52 4.224-3.008 8.384-5.952 12.608-8.704l0.96-0.64a2005.12 2005.12 0 0 1-345.536 6.656l-86.528-5.824L202.688 440.32l70.848 53.952a2102.144 2102.144 0 0 1 259.456 234.432z"  horiz-adv-x="1024" />

    
    <glyph glyph-name="coupon_radio_chosen" unicode="&#58943;" d="M512 896a512 512 0 1 1 0-1024A512 512 0 0 1 512 896z m269.198222-365.852444l-339.911111-373.987556a41.870222 41.870222 0 0 0-60.586667-1.479111L219.022222 316.416a41.642667 41.642667 0 0 0 0.056889 58.993778 41.870222 41.870222 0 0 0 59.164445-0.056889l130.616888-130.673778 310.385778 341.504a41.870222 41.870222 0 0 0 59.050667 2.844445c17.123556-15.473778 18.432-41.813333 2.901333-58.88z"  horiz-adv-x="1024" />

    
    <glyph glyph-name="jisujiaoyimoshiliucheng" unicode="&#58944;" d="M444.8 844.672l520.021333-1.024v-56.96l-66.005333-251.008h104.96v-58.026667c-7.296-163.328-49.962667-299.648-128-409.002666 52.053333-65.28 101.034667-115.328 147.029333-149.973334l-18.986666-37.973333c-63.36 10.666667-130.986667 44.970667-203.008 102.954667-56.661333-52.650667-111.36-86.997333-164.010667-102.997334l-23.978667 33.024c33.962667 36.650667 68.992 86.314667 104.96 148.992a782.208 782.208 0 0 0-91.989333 130.005334c-29.312-149.333333-83.328-253.354667-162.005333-312.021334l-29.994667 27.989334C479.146667 42.66666699999996 502.186667 264.661333 502.784 574.72V786.6453329999999h-57.984v58.026667zM347.818667-100.35199999999998l-19.029334 770.986667h-18.986666v-789.973334H155.733333V670.72h-19.968l-0.384-91.605333c-3.072-370.517333-25.258667-603.306667-66.602666-698.410667l-48 18.986667 3.114666 45.013333C34.517333 111.70133299999998 39.808 353.70666700000004 39.808 670.72H20.821333v58.026667h134.997334V882.602667H309.76v-153.984h114.986667v-58.026667h-18.986667l18.986667-770.986667H347.818667z m437.973333 302.037333c36.693333 91.989333 57.685333 183.978667 63.018667 275.968h-115.029334v58.026667l66.005334 251.008h-142.976v-212.053333c18.005333-131.285333 61.013333-255.616 128.981333-372.949334zM1326.592 728.661333l-38.997333 154.026667h154.026666l38.997334-154.026667h-154.026667z m770.986667-712.96l-76.970667 307.968h154.026667l76.970666-308.010666h-154.026666z m-346.965334 307.968c-16-128.682667-56.32-221.653333-121.002666-279.04-32-29.312-62.336-45.653333-91.008-48.981333l-18.986667 39.04c37.973333 102.656 63.658667 198.997333 76.970667 288.981333h154.026666z m-212.053333 38.997334V670.677333h270.08V747.648h-289.024v58.026667h288.981333V882.645333H1962.666667v-76.970666h288.981333v-58.026667h-289.024V670.72h270.037333V362.66666699999996h-270.037333v-367.018667H1808.64V362.66666699999996h-269.994667z m539.050667 57.002666V612.650667h-115.029334v-192.981334h115.029334z m-269.013334 192.981334H1692.586667v-192.981334h116.053333V612.650667z m-370.986666-620.970667c-37.973333-68.010667-88.021333-105.002667-150.016-111.018667l-18.986667 37.973334c38.656 51.370667 58.026667 141.354667 58.026667 270.037333V593.664h-77.013334v58.026667h230.997334v-463.018667c0-43.349333-4.352-82.986667-13.013334-119.04 19.328-74.666667 68.693333-111.957333 148.010667-111.957333h635.989333v-58.026667H1615.616c-82.005333 0-141.354667 30.72-178.005333 92.032zM2478.378667 786.688h424.021333V882.645333h154.026667v-96h423.978666v-58.026666H2478.378667v58.026666z m834.986666-386.005333l-192 288.981333h166.016l193.024-288.981333h-166.997333z m-487.978666 38.997333c32.682667-91.306667 84.053333-173.013333 154.026666-244.992 69.973333 71.978667 121.301333 153.642667 154.026667 244.992h153.941333c-37.333333-141.994667-101.333333-256.682667-192-344.021333 104.704-73.984 233.002667-132.992 385.024-176.981334l-18.986666-37.973333c-196.010667 8.618667-356.693333 50.645333-482.005334 125.952-125.354667-75.306667-285.994667-117.333333-482.005333-125.994667l-19.029333 37.973334c152.021333 44.032 280.021333 103.04 384 177.066666-90.666667 87.296-154.624 201.984-192 343.978667h155.008z m19.029333 250.026667c-28.032-116.693333-94.336-203.050667-198.997333-259.029334-52.053333-28.032-101.333333-44.373333-148.053334-49.024l-18.986666 37.973334c93.354667 71.381333 164.010667 161.365333 212.053333 270.08h153.984z m939.776-231.04V843.648h848v-384.981333H3784.192z m655.018667-154.026667c-24.021333-160.64-85.674667-279.637333-185.002667-356.992-50.005333-38.656-97.706667-61.013333-143.018667-66.986667l-18.986666 37.973334c102.656 102.698667 166.997333 231.381333 192.981333 386.048h-96c-40.661333-160.682667-116.992-279.68-228.992-357.034667-56.661333-38.656-108.970667-61.013333-157.013333-66.986667l-18.986667 37.973334c115.328 90.026667 198.656 218.709333 250.026667 386.048h-103.04c-49.962667-87.338667-118.314667-138.666667-204.970667-154.026667l-19.029333 37.973333c64 77.354667 102.357333 161.024 115.029333 251.050667h155.008c-4.693333-27.306667-11.349333-52.992-20.053333-77.013333h713.045333v-290.005334c0-80-32-135.978667-96-167.978666-32-16-64-24.021333-96-24.021334l-20.010667 37.973334c38.656 26.026667 58.026667 77.354667 58.026667 154.026666v232.021334h-77.013333zM3938.218667 680.704h539.989333V786.6453329999999H3938.218667v-105.984z m539.989333-58.026667H3938.218667V516.6933329999999h539.989333V622.677333z m457.813333 106.026667h128V882.688h146.986667v-154.026667h109.994667v-58.026666h-18.005334l18.005334-770.986667H5248l-18.986667 770.986667h-18.005333v-789.973334h-146.986667V670.72h-18.005333l-0.213333-69.205333c-2.432-383.573333-25.344-623.829333-68.821334-720.810667l-40.96 18.986667 1.962667 29.568c10.666667 167.466667 16 414.592 16 741.461333h-17.962667v58.026667z m702.976-649.984c-69.973333-106.666667-162.986667-171.989333-278.997333-196.010667l-20.010667 38.997334c57.344 48.64 108.672 112 154.026667 189.994666h-154.026667v58.026667h183.04c11.946667 25.301333 21.632 50.986667 28.970667 76.970667h155.008a487.125333 487.125333 0 0 0-22.016-76.970667h253.013333v-58.026667h-153.002666c44.672-77.994667 95.658667-141.312 153.002666-189.994666l-18.986666-38.997334c-116.053333 24.021333-209.365333 89.344-280.021334 196.010667z m-278.997333 187.008V631.6800000000001h559.018667v-365.994667h-559.018667z m154.026667 211.968h249.984V574.72h-250.026667v-97.024z m249.984-58.026667h-250.026667v-96h250.026667v96z m-424.021334 386.048h77.994667V882.645333h154.026667v-76.970666h134.997333V882.645333h154.026667v-76.970666h76.970666v-58.026667h-77.013333V670.72h-154.026667V747.648h-134.954666V670.72h-154.026667V747.648h-77.994667v58.026667zM6858.794667 882.645333c4.693333-51.328 11.008-102.656 18.986666-153.984h88.021334l-29.994667 134.997334h154.026667l29.952-134.997334h47.018666v-58.026666h-280.021333c57.344-323.968 150.698667-577.962667 280.021333-761.984l-27.008-27.989334c-46.677333 21.333333-98.645333 69.973333-155.989333 146.005334-114.005333 153.344-196.693333 368-248.021333 644.010666h-571.008v58.026667h561.024a2674.005333 2674.005333 0 0 0-22.016 153.941333h155.008zM6202.794667 516.6933329999999h539.989333v-57.984h-192.981333v-500.992h230.997333v-58.026666h-616.021333v58.026666h231.04V458.666667h-193.024V516.6933329999999z m1302.826666-115.968l-93.013333 211.968h157.013333l93.994667-211.968h-157.994667z m715.946667 0l-6.954667 18.986667h-513.024v58.026667l84.010667 250.965333h-102.997333v58.026667h269.994666V882.645333H8106.666667v-96h269.994666v-58.026666h-437.034666l-83.968-251.008h336.981333l-66.986667 173.994666h154.026667l96.981333-250.965333h-155.008z m-268.970667-520.021333V381.653333H8106.666667v-500.992h-154.026667z m212.010667 500.992h154.026667v-386.005333c0-25.301333 12.629333-37.973333 37.973333-37.973334h38.997333v-58.026666h-116.010666c-48 0-81.664 19.370667-100.992 58.026666a132.394667 132.394667 0 0 0-13.994667 58.026667v365.952z m-269.994667 0v-230.997333c0-112.64-35.328-191.658667-106.026666-236.970667-35.328-22.016-70.656-33.024-105.984-33.024l-20.010667 37.973333c52.010667 50.048 77.994667 127.36 77.994667 232.021334v230.997333h154.026666z m-388.992 269.994667l-93.013333 212.053333h157.013333l93.994667-212.053333h-157.994667z m157.994667-308.992l-113.024-443.008h-157.013333l112.042666 443.008h157.994667z m958.762667 308.992h135.04V786.688h-127.018667V843.605333h219.008c78.677333 0 134.997333 13.013333 168.96 39.04v-58.026666c-17.962667-20.010667-59.946667-32.341333-125.952-36.992v-136.021334h133.973333v-57.984h-25.002666l25.002666-694.016h-84.010666l-24.96 694.016h-25.002667v-712.96h-134.997333V593.621333h-25.002667l-0.213333-65.408c-2.56-383.104-28.16-598.954667-76.8-647.594666l-33.024 18.986666c16.682667 218.666667 25.002667 450.005333 25.002666 694.016h-25.002666v58.026667z m453.034666-443.989334h182.997334v173.994667h-202.026667v58.026667h557.994667v-58.026667h-201.984v-173.994667h183.04v-57.002666h-183.04v-192.981334h212.010666v-58.026666h-578.005333v58.026666h212.010667V150.613333h-183.04v57.002667z m530.005334 635.989334V516.6933329999999H9065.386667V843.648h540.032z m-155.008-56.96h-230.997334v-212.053334h230.997334v212.053334z"  horiz-adv-x="9642" />

    
    <glyph glyph-name="index_sell" unicode="&#58940;" d="M716.8 332.8H563.2v-153.6a51.2 51.2 0 0 0-102.4 0V332.8H307.2a51.2 51.2 0 0 0 0 102.4h153.6V588.8a51.2 51.2 0 1 0 102.4 0v-153.6h153.6a51.2 51.2 0 0 0 0-102.4zM512 896C230.4 896 0 665.6 0 384s230.4-512 512-512 512 230.4 512 512-230.4 512-512 512z"  horiz-adv-x="1024" />

    
    <glyph glyph-name="xingzhuang" unicode="&#58945;" d="M854.967147 418.922518a25.770259 25.770259 0 0 0-18.452778 32.578698 25.770259 25.770259 0 0 0 32.196915 18.96182l57.649024-15.462155 50.395172 187.963812c10.308103 38.623573-12.980575 80.810441-52.17682 91.245805l-172.819809 46.322835a130.696571 130.696571 0 0 0-152.076341-69.611513A130.696571 130.696571 0 0 0 502.837241 847.281485L329.953802 893.60432C290.757557 904.103315 249.525143 879.22388 239.217039 840.536677L188.758237 652.636494l110.653036-29.651705a25.770259 25.770259 0 0 0 18.452778-32.578697 25.770259 25.770259 0 0 0-32.260546-18.96182l-110.653037 29.651705-127.769578-476.717971c-10.308103-38.623573 12.980575-80.810441 52.17682-91.245805l172.819809-46.322835a130.696571 130.696571 0 0 0 152.076341 69.611513 130.696571 130.696571 0 0 0 96.845268-136.359665l172.88344-46.322835c39.196245-10.498994 80.428659 14.380441 90.736762 53.004013l127.769579 476.717971-57.585393 15.462155zM515.817816 509.786542l-130.760201 34.996647a25.961149 25.961149 0 0 0-18.77093 32.705958 25.961149 25.961149 0 0 0 32.578698 18.83456l132.987261-35.632951c14.062289-3.817816 22.970527-17.180172 18.834559-32.642327-3.436034-12.853314-18.580038-22.652376-34.933017-18.261887z m241.985911-64.839244l-132.987261 35.63295a25.961149 25.961149 0 0 0-18.83456 32.642328 25.961149 25.961149 0 0 0 32.578698 18.89819l133.050891-35.632951c13.998659-3.817816 22.906897-17.180172 18.770929-32.642327a27.679167 27.679167 0 0 0-32.578697-18.89819z"  horiz-adv-x="1024" />

    
    <glyph glyph-name="saas_icon_yes" unicode="&#58947;" d="M512 896C228.48 896 0 667.52 0 384s228.48-512 512-512 512 228.48 512 512-228.48 512-512 512z m0-945.28A432 432 0 0 0 78.72 384 432 432 0 0 0 512 817.28 432 432 0 0 0 945.28 384 432 432 0 0 0 512-49.28z m204.8 614.4L508.032 317.12c-15.744-15.744-43.264-19.712-59.072-7.872L299.328 423.36C283.52 435.2 256 431.232 244.16 415.488c-11.776-15.744-7.872-43.328 7.872-55.104l149.696-114.24c19.712-15.744 47.232-23.68 74.88-23.68 35.392 0 70.848 15.808 94.464 43.392l208.768 248.128c15.744 15.744 11.776 43.328-3.968 55.104-19.712 15.744-43.328 15.744-59.072-3.904z"  horiz-adv-x="1024" />

    
    <glyph glyph-name="saas_icon_no" unicode="&#58948;" d="M982.906114 581.751768c109.63063-257.340783-7.615905-554.489069-264.124699-669.431632a518.713516 518.713516 0 0 0-201.853477-40.319496C270.915014-127.23137 59.333658 44.990478 10.37427 284.283486c-48.895389 239.357008 78.39902 479.738003 304.636192 575.608805C576.76719 962.547008 873.275484 839.028552 982.906114 581.751768zM516.927938 820.596783c-241.468982 0-437.306534-195.325558-437.306533-434.042575 0-238.653017 195.837552-433.978575 437.306533-433.978575 241.404982 0 437.242534 194.36557 437.242535 433.978575 0 239.677004-196.861539 434.042574-437.242535 434.042575zM352.577993 607.095451l164.349945-164.029949 164.349946 163.069961a41.087486 41.087486 0 0 0 57.791278 0 40.319496 40.319496 0 0 0 0-57.407282L574.39922 385.722218l163.645954-163.261959c11.391858-11.519856 14.719816-28.671642 8.575893-43.519456a40.575493 40.575493 0 0 0-36.991537-24.959688 40.703491 40.703491 0 0 0-28.351646 12.095849L517.055937 328.954928l-164.477944-162.877964a40.76749 40.76749 0 0 0-66.43117 12.79984 40.063499 40.063499 0 0 0 8.575893 43.519456L459.520656 386.170213 294.722716 549.752168a40.383495 40.383495 0 0 0 18.303771 67.839152 41.087486 41.087486 0 0 0 39.551506-10.495869z"  horiz-adv-x="1024" />

    
    <glyph glyph-name="icon_mt" unicode="&#58950;" d="M512 832a447.36 447.36 0 0 1-448-448.256C64 135.552 266.56-64 512-64c248 0 448 200.064 448 448.256C960 632.448 757.952 832 512 832z m291.968-583.68a34.368 34.368 0 0 0-32-20.736c-4.736 0-9.344 0-14.016 2.112L493.888 349.632a36.48 36.48 0 0 0-20.672 32V629.888c0 18.624 16 34.688 34.624 34.688 18.624 0 34.624-16 34.624-34.688v-227.456l243.392-110.08c18.112-6.784 24.832-25.408 18.112-44.032z"  horiz-adv-x="1024" />

    


  </font>
</defs>
</svg>
